<svg width="316" height="32" viewBox="0 0 316 32" fill="none" xmlns="http://www.w3.org/2000/svg">
						<path d="M184.909 7.12791V6.1155C184.909 5.00185 184.454 4.53614 183.146 4.53614C181.838 4.53614 181.402 5.00185 181.402 6.1155V12.6152C181.402 13.7288 181.838 14.1945 183.126 14.1945C184.414 14.1945 184.929 13.3846 184.929 12.0685V10.5499H182.849V8.68703H187.406V15.8144H185.266V14.802C184.87 15.3689 184.117 16.0574 182.393 16.0574C180.194 16.0574 178.945 15.126 178.945 12.109V6.72295C178.945 3.70597 180.649 2.63281 183.205 2.63281C185.761 2.63281 187.426 3.80721 187.426 6.13575V7.10767H184.929L184.909 7.12791Z" fill="black"/>
						<path d="M197.254 2.89453V4.79786H192.34V8.07807H196.779V9.96116H192.34V13.9298H197.254V15.8331H189.863V2.89453H197.254Z" fill="black"/>
						<path d="M208.408 2.89453V15.8331H205.337L202.008 5.95201V15.8331H199.531V2.89453H202.583L205.911 12.7149V2.89453H208.408Z" fill="black"/>
						<path d="M218.675 2.89453V4.79786H215.564V15.8331H213.087V4.79786H209.977V2.89453H218.675Z" fill="black"/>
						<path d="M222.715 13.9298H227.609V15.8331H220.238V2.89453H222.715V13.9298Z" fill="black"/>
						<path d="M236.586 2.89453V4.79786H231.653V8.07807H236.091V9.96116H231.653V13.9298H236.586V15.8331H229.176V2.89453H236.586Z" fill="black"/>
						<path d="M254.003 2.89453V15.8331H251.526V5.89127L249.426 15.8331H247.464L245.344 5.83052V15.8331H242.867V2.89453H246.355L248.435 12.7757L250.516 2.89453H254.003Z" fill="black"/>
						<path d="M262.363 6.27606C262.363 4.93967 261.907 4.55496 260.619 4.55496C259.331 4.55496 258.875 4.93967 258.875 6.27606V12.4923C258.875 13.8084 259.331 14.2134 260.619 14.2134C261.907 14.2134 262.363 13.8286 262.363 12.4923V6.27606ZM264.839 6.8835V11.8646C264.839 15.0233 263.333 16.0762 260.619 16.0762C257.904 16.0762 256.398 15.0233 256.398 11.8646V6.8835C256.398 3.72478 257.904 2.67188 260.619 2.67188C263.333 2.67188 264.839 3.72478 264.839 6.8835Z" fill="black"/>
						<path d="M276.115 2.89453V15.8331H273.064L269.715 5.95201V15.8331H267.238V2.89453H270.29L273.638 12.7149V2.89453H276.115Z" fill="black"/>
						<path d="M286.319 5.91159V6.68102H283.842V6.03308C283.842 4.95992 283.684 4.47397 282.455 4.47397C281.227 4.47397 281.088 4.95992 281.088 5.85084C281.088 6.57978 281.246 6.924 281.94 7.38971L284.357 8.96907C285.685 9.83974 286.458 10.3662 286.458 12.634C286.458 14.9018 285.011 16.0357 282.554 16.0357C279.661 16.0357 278.492 14.9828 278.492 12.6542V11.5608H280.989V12.5327C280.989 13.9096 281.405 14.2336 282.554 14.2336C283.703 14.2336 283.961 13.7071 283.961 12.7757C283.961 11.8443 283.822 11.5001 282.97 10.9129L280.612 9.27279C279.146 8.26038 278.611 7.77442 278.611 5.87109C278.611 4.25123 279.523 2.67188 282.475 2.67188C285.427 2.67188 286.339 3.96776 286.339 5.91159" fill="black"/>
						<path d="M296.265 2.89453V4.79786H293.154V15.8331H290.677V4.79786H287.566V2.89453H296.265Z" fill="black"/>
						<path d="M305.243 2.89453V4.79786H300.309V8.07807H304.747V9.96116H300.309V13.9298H305.243V15.8331H297.832V2.89453H305.243Z" fill="black"/>
						<path d="M311.7 8.19956C313.047 8.19956 313.265 7.61236 313.265 6.49871C313.265 5.38506 313.067 4.79786 311.72 4.79786H309.976V8.17931H311.68L311.7 8.19956ZM315.485 11.4595V14.2335C315.485 14.9017 315.663 15.4889 315.96 15.8129H313.404C313.186 15.4687 313.028 14.9017 313.028 14.2538V11.4595C313.028 10.4066 312.631 10.1029 311.74 10.1029H310.016V15.8331H307.539V2.89453H312.077C315.386 2.89453 315.821 4.71687 315.821 6.49871C315.821 7.93633 315.069 8.98924 313.285 9.25247C314.771 9.37396 315.524 10.2244 315.524 11.4595" fill="black"/>
						<path d="M56.2717 24.9471V28.855C56.2717 29.503 56.3113 29.9484 56.3906 30.1509C56.4897 30.3939 56.7274 30.5559 57.1039 30.5761H57.3219C57.3219 30.5761 57.4606 30.6571 57.4606 30.7583C57.4606 30.8596 57.4011 30.9001 57.2624 30.9001C57.2426 30.9001 57.1832 30.9001 57.1237 30.9001C57.0246 30.9001 56.9058 30.9001 56.7869 30.9001H55.9943L55.7961 30.8798C55.5584 30.8798 55.2215 30.9001 54.8054 30.9608C54.6667 30.9608 54.5677 30.9811 54.4884 30.9811C54.3695 30.9811 54.3299 30.9406 54.3299 30.8596C54.3299 30.7786 54.3695 30.7381 54.4488 30.7179C54.7064 30.6571 54.8847 30.5356 54.9639 30.3331C55.0432 30.1509 55.1026 29.7864 55.1026 29.2802V25.3116C55.1026 24.9066 55.0234 24.6231 54.8847 24.4409C54.746 24.2587 54.4884 24.1372 54.1317 24.1169C54.0129 24.1169 53.9336 24.0359 53.9336 23.955C53.9336 23.8537 54.0129 23.793 54.1516 23.793C54.1912 23.793 54.2704 23.793 54.3893 23.793C54.7658 23.8132 55.1819 23.8335 55.6773 23.8335C55.915 23.8335 56.0934 23.8335 56.2519 23.8335L56.8067 23.793C56.985 23.793 57.1633 23.793 57.3219 23.793C58.2729 23.793 58.9665 23.9955 59.4024 24.4004C59.7987 24.7649 59.977 25.2103 59.977 25.7368C59.977 26.3037 59.7788 26.7897 59.3627 27.1744C58.9466 27.5591 58.4513 27.7616 57.8568 27.7616C57.5398 27.7616 57.2426 27.7211 57.0048 27.6604C56.7671 27.5794 56.6482 27.4984 56.6482 27.4174C56.6482 27.3364 56.6878 27.2757 56.7671 27.2757C56.7671 27.2757 56.8067 27.2757 56.8463 27.2757C57.0246 27.3364 57.203 27.3567 57.3813 27.3567C57.7974 27.3567 58.1144 27.2352 58.3918 26.9517C58.6494 26.6885 58.7881 26.3442 58.7881 25.919C58.7881 25.3926 58.6296 24.9674 58.3324 24.6434C58.0352 24.3194 57.6389 24.1574 57.1633 24.1574C56.7869 24.1574 56.5491 24.2182 56.4104 24.3194C56.2915 24.4409 56.2122 24.6434 56.2122 24.9674" fill="black"/>
						<path d="M65.4085 24.3586L67.7069 29.7446C67.8258 30.0078 67.9645 30.2103 68.123 30.352C68.2816 30.4938 68.4797 30.5748 68.7175 30.6153C68.7769 30.6153 68.8166 30.676 68.8166 30.757C68.8166 30.8582 68.7769 30.8987 68.6977 30.8987C68.658 30.8987 68.5788 30.8987 68.4995 30.8582C68.2419 30.7975 67.8258 30.7772 67.2314 30.7772C66.637 30.7772 66.2605 30.7975 66.0425 30.8582C65.9831 30.8582 65.9435 30.8785 65.9038 30.8785C65.8048 30.8785 65.7651 30.838 65.7651 30.7367C65.7651 30.6962 65.8048 30.6557 65.884 30.6153C66.0425 30.5748 66.1812 30.4938 66.2803 30.352C66.3794 30.2305 66.4388 30.0888 66.4388 29.9673C66.4388 29.7648 66.3001 29.3396 66.0029 28.6917C65.9038 28.4892 65.8048 28.3677 65.7057 28.3475C65.5868 28.3272 65.2103 28.307 64.5565 28.307H63.8828L63.427 28.388C63.3081 28.4487 63.1694 28.6714 63.0109 29.0561L62.8524 29.4611C62.8128 29.5826 62.7732 29.6838 62.7732 29.8053C62.7732 30.2305 63.0704 30.4938 63.6648 30.5545C63.7837 30.5545 63.863 30.6153 63.863 30.6962C63.863 30.7772 63.7837 30.838 63.6846 30.838C63.6252 30.838 63.5459 30.838 63.427 30.8177C63.2091 30.7772 63.0109 30.757 62.8326 30.757C62.6741 30.757 62.4165 30.757 62.0598 30.7975C61.8023 30.838 61.6239 30.838 61.5645 30.838C61.4654 30.838 61.4258 30.7975 61.4258 30.7165C61.4258 30.6355 61.4654 30.595 61.5645 30.5545C61.7428 30.4938 61.9013 30.3925 62.0004 30.2305C62.1193 30.0686 62.2778 29.7446 62.4958 29.2384L63.8828 25.9987C64.0016 25.7354 64.0611 25.5532 64.1205 25.4722L64.5961 24.48L64.8339 23.9941C64.9527 23.7511 65.0122 23.6094 65.0518 23.6094C65.1113 23.6094 65.1905 23.7511 65.3292 24.0346L65.4481 24.3181L65.4085 24.3586ZM65.5868 27.578L64.9329 26.0189C64.7744 25.6342 64.6555 25.452 64.5961 25.452C64.5565 25.452 64.4772 25.5735 64.3781 25.8164L64.2791 26.0392L63.6846 27.3958L63.6252 27.5173C63.6252 27.5173 63.5856 27.6185 63.5856 27.659C63.5856 27.7805 63.7044 27.8412 63.9422 27.8412H65.4283C65.5472 27.8412 65.6264 27.8008 65.6264 27.74C65.6264 27.74 65.6264 27.6995 65.6066 27.659V27.5983L65.5868 27.578Z" fill="black"/>
						<path d="M73.6311 28.8323C73.6311 29.4802 73.6905 29.9257 73.8094 30.1687C73.9283 30.3914 74.1661 30.5331 74.5029 30.5736C74.6416 30.5736 74.7209 30.6546 74.7209 30.7559C74.7209 30.8571 74.6614 30.8976 74.5425 30.8976C74.5029 30.8976 74.4435 30.8976 74.3246 30.8976C74.0274 30.8774 73.75 30.8571 73.4924 30.8571C73.2744 30.8571 73.0565 30.8571 72.8979 30.8571L72.4818 30.8976H72.145C72.145 30.8976 71.9865 30.9381 71.9468 30.9381C71.828 30.9381 71.7685 30.8976 71.7685 30.7964C71.7685 30.7154 71.8081 30.6749 71.8676 30.6546C72.1054 30.5736 72.2639 30.4927 72.3431 30.3712C72.4224 30.2497 72.4818 30.0674 72.4818 29.8042V29.1158V25.3901C72.4818 24.9851 72.4224 24.7017 72.3233 24.5599C72.1648 24.3372 71.8874 24.1955 71.5109 24.155C71.3722 24.1347 71.293 24.074 71.293 23.9727C71.293 23.8715 71.3326 23.831 71.4317 23.831C71.4713 23.831 71.5307 23.831 71.61 23.831C71.8676 23.8512 72.145 23.8715 72.462 23.8715C72.7989 23.8715 73.215 23.8512 73.6905 23.8107C74.2651 23.7702 74.6614 23.75 74.8794 23.75C75.5134 23.75 76.0484 23.9322 76.4645 24.2765C76.8806 24.6409 77.0986 25.0864 77.0986 25.6128C77.0986 25.9571 76.9995 26.2608 76.8212 26.5443C76.6429 26.8277 76.3853 27.0302 76.0484 27.1719C75.989 27.1922 75.9493 27.2327 75.9493 27.2732C75.9493 27.3137 75.9494 27.3542 76.0088 27.3947C76.0286 27.4352 76.0881 27.5162 76.1475 27.6377L76.6032 28.4476L77.1184 29.379C77.2967 29.703 77.4552 29.9257 77.5939 30.0472C77.7326 30.1687 77.8912 30.2294 78.0893 30.2294C78.1686 30.2294 78.2478 30.2294 78.3073 30.2092C78.3469 30.2092 78.3865 30.2092 78.4261 30.2092C78.4856 30.2092 78.5252 30.2497 78.5252 30.3307C78.5252 30.4319 78.3865 30.5534 78.1091 30.6749C77.8317 30.7964 77.5939 30.8774 77.376 30.8774C77.0193 30.8774 76.7023 30.6951 76.4249 30.3509C76.1277 30.0067 75.7512 29.3385 75.2757 28.3868C75.0973 28.0021 74.9388 27.7591 74.8199 27.6579C74.701 27.5567 74.5029 27.5162 74.2453 27.5162H73.9283L73.7103 27.5567C73.7103 27.5567 73.6311 27.6579 73.6311 27.7996V28.8323ZM73.6311 24.8029V26.5847C73.6311 26.8075 73.6509 26.9492 73.7103 27.01C73.7698 27.0707 73.8887 27.091 74.1066 27.091C74.7209 27.091 75.0775 27.091 75.236 27.0505C75.3747 27.0302 75.5134 26.9492 75.6323 26.848C75.8899 26.6252 76.0088 26.3013 76.0088 25.9166C76.0088 25.4104 75.8305 24.9649 75.5134 24.6409C75.1766 24.2967 74.7605 24.1347 74.2453 24.1347C74.0075 24.1347 73.849 24.1752 73.7698 24.2765C73.6905 24.3777 73.6311 24.5599 73.6311 24.8029Z" fill="black"/>
						<path d="M83.3576 29.2373L83.3973 29.7637C83.4369 30.0269 83.536 30.2294 83.6945 30.3712C83.853 30.5129 84.0511 30.5939 84.3087 30.5939C84.4871 30.5939 84.5663 30.6546 84.5663 30.7559C84.5663 30.8571 84.4474 30.9179 84.2295 30.9179C84.1304 30.9179 83.9917 30.9179 83.8134 30.8976C83.3774 30.8369 83.0208 30.8166 82.7434 30.8166C82.4065 30.8166 82.149 30.8166 81.9508 30.8774C81.7725 30.8976 81.6536 30.9179 81.5942 30.9179C81.5347 30.9179 81.4753 30.8774 81.4555 30.7964V30.7559L81.5942 30.6344C81.8319 30.5534 81.9904 30.4319 82.0697 30.3104C82.1489 30.1889 82.1886 29.9662 82.1886 29.6625V29.1968V25.0864C82.1886 24.7827 82.1291 24.5397 82.0301 24.4182C81.931 24.2765 81.7328 24.1955 81.4356 24.155C81.2573 24.1347 81.1582 24.0942 81.0988 24.074C81.0393 24.0537 81.0195 24.0132 81.0195 23.9322C81.0195 23.831 81.0592 23.7905 81.1384 23.7905C81.1979 23.7905 81.2969 23.7905 81.4158 23.831C81.5347 23.8512 81.7328 23.8715 82.0301 23.8715C82.2282 23.8715 82.4462 23.8715 82.7434 23.831H83.1C83.4567 23.7703 83.7143 23.75 83.8926 23.75C84.0115 23.75 84.071 23.7905 84.071 23.8715C84.071 23.9322 84.0709 23.9727 84.0511 23.993C84.0511 24.0132 83.9917 24.0335 83.9323 24.0335C83.6945 24.074 83.536 24.1347 83.4567 24.236C83.3774 24.3372 83.3576 24.5194 83.3576 24.8232V29.217V29.2373Z" fill="black"/>
						<path d="M89.5015 23.6484C89.8186 23.6484 90.1356 23.7092 90.4328 23.8307L90.7697 23.9724C90.9282 24.0332 91.0273 24.0736 91.0867 24.0736C91.1263 24.0736 91.1858 24.0736 91.2254 24.0332L91.4235 23.9319C91.4235 23.9319 91.483 23.9319 91.5028 23.9319C91.5821 23.9319 91.6019 23.9927 91.6019 24.0939V24.5191C91.6019 24.5191 91.6019 24.6406 91.6019 24.7013L91.6811 25.2075L91.7406 25.6733C91.7406 25.6733 91.7406 25.7542 91.7406 25.7745C91.7406 25.9162 91.7009 25.9972 91.6217 25.9972C91.5622 25.9972 91.5226 25.9365 91.483 25.815C91.3839 25.329 91.1461 24.9241 90.7498 24.5799C90.3536 24.2356 89.9375 24.0534 89.5015 24.0534C89.2043 24.0534 88.9269 24.1546 88.709 24.3774C88.4712 24.5799 88.3721 24.8228 88.3721 25.1063C88.3721 25.3695 88.4712 25.5923 88.6693 25.7947C88.7882 25.9162 89.2043 26.1187 89.878 26.4022C90.6706 26.7262 91.2056 27.0704 91.4632 27.3944C91.7604 27.7791 91.9189 28.2448 91.9189 28.7915C91.9189 29.3989 91.7009 29.9051 91.2848 30.3506C90.8489 30.7961 90.3536 31.0188 89.7988 31.0188C89.561 31.0188 89.2043 30.9378 88.6891 30.7758C88.4514 30.6948 88.273 30.6543 88.174 30.6138C88.0155 30.5936 87.9362 30.5531 87.8966 30.5328C87.8768 30.5126 87.8569 30.4113 87.8371 30.2696C87.8371 30.1076 87.7579 29.8646 87.6786 29.5609C87.5597 29.0952 87.4805 28.7915 87.4805 28.67C87.4805 28.508 87.5399 28.427 87.639 28.427C87.6786 28.427 87.7182 28.4675 87.7381 28.5485C87.8966 29.1357 88.1938 29.6217 88.5901 30.0266C89.0062 30.4316 89.4223 30.6341 89.8582 30.6341C90.195 30.6341 90.4923 30.5126 90.7697 30.2291C91.0471 29.9659 91.1659 29.6622 91.1659 29.3179C91.1659 29.0547 91.0867 28.832 90.948 28.6497C90.8093 28.4675 90.5715 28.3055 90.2149 28.1638L89.4421 27.7993C88.709 27.4753 88.2334 27.1514 87.956 26.8679C87.6984 26.5642 87.5597 26.1795 87.5597 25.6935C87.5597 25.1266 87.7381 24.6406 88.1145 24.2761C88.4712 23.8914 88.9269 23.7092 89.4619 23.7092" fill="black"/>
						<path d="M4.55731 1.60003L8.85703 11.1977C9.03536 11.6229 9.19388 11.8254 9.33258 11.8254C9.45147 11.8254 9.59017 11.6634 9.72887 11.3799L13.6917 2.75418C14.0682 1.94425 14.3258 1.4178 14.4843 1.21531C14.6428 1.01283 14.8608 0.91159 15.1184 0.91159C15.2175 0.91159 15.376 0.91159 15.5741 0.931838C15.7723 0.952087 15.9902 0.972335 16.2082 0.972335C16.4856 0.972335 16.8422 0.952087 17.2782 0.891342C17.4961 0.891342 17.6546 0.871094 17.7537 0.871094C17.9915 0.871094 18.1302 0.972335 18.1302 1.17482C18.1302 1.3368 18.0311 1.43804 17.8528 1.43804C17.1989 1.47854 16.7432 1.72152 16.4658 2.10623C16.2082 2.5112 16.0695 3.17939 16.0695 4.13105V4.85999L16.3271 11.5419V11.9671C16.3271 12.9593 16.5054 13.6882 16.8422 14.1539C17.1791 14.6196 17.7339 14.9031 18.5066 15.0043C18.7048 15.0246 18.8039 15.1258 18.8039 15.3283C18.8039 15.5308 18.5661 15.632 18.0905 15.632C17.9518 15.632 17.7339 15.632 17.4169 15.5713C16.5648 15.47 15.9506 15.4296 15.5939 15.4296C14.8608 15.4296 14.2465 15.47 13.7512 15.5308C13.2955 15.6118 12.9784 15.632 12.8001 15.632C12.6218 15.632 12.5425 15.551 12.5425 15.3486C12.5425 15.2068 12.6416 15.1056 12.8397 15.0448C13.236 14.9233 13.5332 14.7411 13.6917 14.4981C13.8503 14.2552 13.9493 13.8704 13.9493 13.3845C13.9493 13.1415 13.9493 12.9795 13.9493 12.8783L13.6323 5.77116C13.6323 5.56868 13.5729 5.48768 13.4936 5.48768C13.3945 5.48768 13.236 5.69017 13.0577 6.07488L9.11462 14.6399L8.97592 14.9638C8.77778 15.4093 8.61926 15.632 8.48056 15.632C8.32205 15.632 8.06446 15.2473 7.7078 14.4576L7.17281 13.344L3.80436 5.69017L3.72511 5.52818C3.72511 5.52818 3.64585 5.44719 3.60622 5.44719C3.48733 5.44719 3.42789 5.58893 3.42789 5.89265V6.23687L3.28919 11.6431V12.0684L3.36845 13.0808C3.56659 14.1337 4.12139 14.7816 5.01304 15.0043C5.33007 15.0853 5.48859 15.2068 5.48859 15.3688C5.48859 15.551 5.3697 15.6523 5.13193 15.6523C4.93378 15.6523 4.71583 15.6523 4.45824 15.5915L3.70529 15.4903C3.50715 15.47 3.24956 15.4498 2.8929 15.4498C2.25884 15.4498 1.76348 15.47 1.40682 15.551C1.16905 15.5915 0.99072 15.632 0.871833 15.632C0.653875 15.632 0.554803 15.5308 0.554803 15.3486C0.554803 15.2271 0.634061 15.1258 0.81239 15.0651C1.34738 14.8829 1.74367 14.5386 2.00125 14.0729C2.25884 13.6072 2.37773 12.939 2.37773 12.1088L2.65513 5.08272L2.69476 4.37403C2.69476 3.52361 2.49661 2.83517 2.08051 2.34921C1.66441 1.86326 1.10961 1.62028 0.396288 1.62028C0.138701 1.62028 0 1.51904 0 1.31655C0 1.11407 0.158515 0.992583 0.455731 0.992583C0.515174 0.992583 0.594432 0.992583 0.693504 0.992583L1.30775 1.03308C1.42664 1.03308 1.56534 1.03308 1.74367 1.03308C2.08051 1.03308 2.39754 1.01283 2.71457 0.972335C3.19012 0.91159 3.50715 0.891342 3.64585 0.891342C4.10158 0.891342 4.43842 1.11407 4.63657 1.55953" fill="black"/>
						<path d="M24.5116 10.4665C24.5909 10.1425 24.6305 9.85905 24.6305 9.63632C24.6305 8.92763 24.4522 8.34044 24.1153 7.87473C23.7785 7.42927 23.3426 7.20654 22.8274 7.20654C22.1537 7.20654 21.8169 7.49001 21.8169 8.05696C21.8169 8.1582 21.8169 8.25944 21.8367 8.36068L21.8763 8.56317C21.8763 9.04912 21.3413 9.2921 20.2515 9.2921C19.9741 9.2921 19.8354 9.17061 19.8552 8.92763C19.8552 8.88714 19.8552 8.80614 19.9147 8.7049C19.9345 8.62391 19.9543 8.52267 19.9741 8.42143C20.0732 7.97597 20.2713 7.6115 20.6082 7.36852C21.3611 6.82182 22.2528 6.55859 23.3029 6.55859C24.5116 6.55859 25.4231 6.84207 26.0175 7.40902C26.4733 7.83423 26.711 8.60366 26.711 9.67682C26.711 10.2235 26.6912 10.8917 26.6516 11.7219C26.612 12.6533 26.5921 13.281 26.5921 13.605C26.5921 14.3339 26.8894 14.7186 27.464 14.7186C27.6621 14.7186 27.8206 14.6984 27.9197 14.6376C28.0386 14.5971 28.1178 14.5566 28.1575 14.5566C28.2565 14.5566 28.2962 14.6174 28.2962 14.7186C28.2962 14.9009 28.1575 15.0628 27.8801 15.2248L27.464 15.4476L27.1073 15.6703C26.8497 15.812 26.5723 15.8728 26.2751 15.8728C25.6609 15.8728 25.1457 15.4678 24.7098 14.6579C23.402 15.5083 22.332 15.9335 21.48 15.9335C20.8856 15.9335 20.41 15.7513 20.093 15.4071C19.7562 15.0628 19.5977 14.5769 19.5977 13.9492C19.5977 12.8153 20.0732 11.9851 21.0441 11.4789C21.6385 11.1752 22.8076 10.8512 24.5513 10.5272M24.3333 11.1549C23.7191 11.1144 23.1642 11.3372 22.6094 11.8029C22.0546 12.2888 21.7971 12.8153 21.7971 13.3822C21.7971 14.3339 22.1735 14.7996 22.9067 14.7996C23.3624 14.7996 23.7785 14.6781 24.1153 14.4756C24.3135 14.3542 24.4324 14.1719 24.5116 13.8884C24.5909 13.605 24.6107 13.1393 24.6107 12.4913V11.6611V11.4384L24.5513 11.1954C24.5513 11.1954 24.4324 11.1549 24.3333 11.1347" fill="black"/>
						<path d="M32.1586 7.00452V13.079C32.1586 13.8079 32.2577 14.3141 32.4757 14.5976C32.6936 14.8811 33.0899 15.0431 33.6645 15.0836C33.9023 15.0836 34.0212 15.1848 34.0212 15.3265C34.0212 15.5088 33.7438 15.61 33.189 15.61C33.1097 15.61 32.971 15.61 32.7333 15.5695L31.9407 15.4885C31.5048 15.448 31.2076 15.4278 31.0887 15.4278C30.7122 15.4278 30.2168 15.4885 29.5828 15.5898C29.4243 15.61 29.3054 15.6303 29.2261 15.6303C29.0676 15.6303 29.0082 15.5493 29.0082 15.4278C29.0082 15.3265 29.0478 15.2658 29.1469 15.205L29.5035 15.0228C29.662 14.9418 29.7809 14.7596 29.8998 14.4559C30.0187 14.1521 30.0583 13.8484 30.0583 13.5447V13.0992V9.4748C30.0583 8.9281 29.9989 8.54339 29.88 8.32066C29.7611 8.09793 29.563 7.99669 29.2657 7.99669H29.028C28.8893 7.99669 28.81 7.97644 28.7506 7.91569C28.7308 7.8752 28.7109 7.8347 28.7109 7.75371C28.7109 7.57147 28.9289 7.42974 29.345 7.32849C30.415 7.10576 31.2472 6.76155 31.8614 6.29584C31.9407 6.23509 32.0001 6.21484 32.0398 6.21484C32.1388 6.21484 32.1785 6.29584 32.1785 6.41733V6.51857C32.1785 6.51857 32.1785 6.7413 32.1785 7.00452" fill="black"/>
						<path d="M37.9829 6.5405C38.4584 6.5405 38.9736 6.62149 39.5482 6.78347C39.8256 6.86447 39.9841 7.0062 40.0039 7.20869V7.6744L40.0832 8.34259V8.70705C40.0832 8.70705 40.1228 8.8083 40.1228 8.82854C40.1228 8.97028 40.0436 9.03103 39.9049 9.03103C39.786 9.03103 39.6076 8.78805 39.3501 8.32234C38.8547 7.41117 38.2404 6.94546 37.4875 6.94546C37.111 6.94546 36.794 7.06695 36.5166 7.30993C36.2392 7.55291 36.1005 7.83638 36.1005 8.16035C36.1005 8.74755 36.5166 9.23351 37.329 9.57773L38.0423 9.88145C38.6565 10.1447 39.0727 10.3472 39.2906 10.5091C39.5086 10.6509 39.7265 10.8534 39.9247 11.1368C40.2615 11.6025 40.4398 12.1695 40.4398 12.8579C40.4398 13.7084 40.1624 14.417 39.6076 15.0042C39.0528 15.5914 38.3791 15.8749 37.5866 15.8749C37.1507 15.8749 36.6355 15.7939 36.0014 15.6522L35.2683 15.47L34.7927 15.389C34.6342 15.3687 34.555 15.2675 34.555 15.0852C34.555 15.0245 34.555 14.9435 34.555 14.822C34.555 14.7005 34.5748 14.5588 34.5748 14.3968V13.2224L34.5352 12.696C34.5352 12.534 34.5352 12.4327 34.5748 12.3922C34.6144 12.3517 34.6937 12.3315 34.8126 12.3315C34.9314 12.3315 34.9909 12.4327 35.0305 12.615C35.1098 13.0604 35.3475 13.5869 35.724 14.2348C36.1797 14.984 36.7742 15.3485 37.5271 15.3485C37.9432 15.3485 38.2999 15.2067 38.5773 14.9435C38.8547 14.6803 38.9934 14.3361 38.9934 13.9311C38.9934 13.4856 38.8547 13.1212 38.5971 12.8579C38.3197 12.5947 37.8045 12.3112 37.0516 12.0075C36.1401 11.643 35.5259 11.2786 35.1692 10.8736C34.8126 10.4686 34.654 9.92195 34.654 9.23351C34.654 8.40333 34.9513 7.73514 35.5457 7.24918C36.1401 6.76323 36.9327 6.5 37.9234 6.5" fill="black"/>
						<path d="M46.7226 6.53906C48.0501 6.53906 49.1399 6.96427 49.9919 7.8147C50.844 8.66512 51.2799 9.75853 51.2799 11.0949C51.2799 12.4313 50.8043 13.6057 49.8731 14.5169C48.9418 15.428 47.7727 15.8937 46.3857 15.8937C45.078 15.8937 43.9882 15.4685 43.1163 14.6181C42.2445 13.7677 41.8086 12.6945 41.8086 11.4189C41.8086 10.0622 42.2841 8.9081 43.2352 7.97669C44.1863 7.02502 45.3554 6.55931 46.7027 6.55931M46.1479 7.14651C45.4743 7.14651 44.9393 7.42998 44.5232 8.01718C44.1269 8.60438 43.9287 9.39406 43.9287 10.3862C43.9287 11.7429 44.2259 12.897 44.8402 13.8689C45.4544 14.8408 46.1876 15.3268 47.0594 15.3268C47.7133 15.3268 48.2483 15.0433 48.6644 14.4966C49.0805 13.9499 49.2786 13.2412 49.2786 12.3503C49.2786 10.8924 48.9616 9.65729 48.3672 8.64488C47.7529 7.63247 47 7.12626 46.1281 7.12626" fill="black"/>
						<path d="M62.3162 11.0741V13.2406C62.3162 13.7064 62.336 14.0101 62.3955 14.1923C62.4351 14.3543 62.554 14.5163 62.7323 14.6783C62.9899 14.8808 63.3069 15.0022 63.7032 15.0427C63.9212 15.063 64.0203 15.1642 64.0203 15.306C64.0203 15.5287 63.7627 15.6299 63.2673 15.6299C63.1682 15.6299 63.0097 15.6299 62.8116 15.5894L62.1379 15.5084C61.8209 15.468 61.5831 15.468 61.4048 15.468C60.7311 15.468 60.2159 15.5084 59.7998 15.5894C59.6413 15.6097 59.5026 15.6299 59.3837 15.6299C59.2252 15.6299 59.1459 15.5489 59.1459 15.387C59.1459 15.2655 59.2252 15.1845 59.3837 15.1237C59.7007 15.0225 59.8989 14.8403 59.9979 14.6175C60.097 14.3948 60.1565 14.0101 60.1565 13.4634V10.9324C60.1565 9.96044 59.9583 9.19101 59.5818 8.62406C59.2054 8.05711 58.6902 7.77363 58.0165 7.77363C57.4221 7.77363 56.9465 7.93562 56.5899 8.25959C56.2332 8.58356 56.0549 9.02902 56.0549 9.55548V13.1394C56.0549 13.8076 56.1738 14.2733 56.4115 14.577C56.6493 14.8808 57.0654 15.063 57.6202 15.1035C57.8184 15.1237 57.9174 15.2047 57.9174 15.3465C57.9174 15.5489 57.7985 15.6502 57.5608 15.6502C57.323 15.6502 57.0456 15.6299 56.7286 15.5894C55.936 15.4882 55.401 15.4477 55.084 15.4477C54.6679 15.4477 54.2121 15.4882 53.6771 15.5692C53.4196 15.6097 53.261 15.6299 53.162 15.6299C52.9836 15.6299 52.9044 15.5489 52.9044 15.4072C52.9044 15.306 52.9638 15.225 53.0827 15.1845C53.4394 15.0427 53.6573 14.901 53.7564 14.739C53.8555 14.577 53.8951 14.2936 53.8951 13.8481V13.4836V9.69721V9.272C53.8951 8.7658 53.8357 8.40133 53.7366 8.19885C53.6375 7.99636 53.4394 7.89512 53.1818 7.89512H52.7062C52.7062 7.89512 52.5874 7.89512 52.5477 7.83438C52.5081 7.79388 52.4883 7.75339 52.4883 7.67239C52.4883 7.53066 52.5477 7.44966 52.6468 7.38892C52.7459 7.32817 53.0629 7.24718 53.5781 7.10544C54.4499 6.90296 55.183 6.57899 55.7775 6.17403C55.8171 6.13353 55.8765 6.11328 55.9162 6.11328C55.9954 6.11328 56.0351 6.17403 56.0351 6.31576L55.9954 6.86247V7.46991L56.0549 7.87488C56.0747 7.95587 56.1341 7.99636 56.1936 8.01661C56.253 8.01661 56.3719 7.93562 56.5304 7.73314C57.1843 6.94346 58.0165 6.53849 59.0865 6.53849C60.2357 6.53849 61.0481 6.88271 61.5236 7.5914C62.019 8.30009 62.2568 9.45423 62.2568 11.0741" fill="black"/>
						<path d="M74.4016 1.60003L78.7014 11.1977C78.8995 11.6229 79.0382 11.8254 79.1769 11.8254C79.2958 11.8254 79.4345 11.6634 79.5732 11.3799L83.5361 2.75418C83.9125 1.94425 84.1701 1.4178 84.3286 1.21531C84.4872 1.01283 84.7051 0.91159 84.9627 0.91159C85.0618 0.91159 85.2203 0.91159 85.4184 0.931838C85.6166 0.952087 85.8345 0.972335 86.0525 0.972335C86.3497 0.972335 86.6866 0.952087 87.1225 0.891342C87.3404 0.891342 87.4989 0.871094 87.598 0.871094C87.8358 0.871094 87.9547 0.972335 87.9547 1.17482C87.9547 1.3368 87.8556 1.43804 87.6773 1.43804C87.0234 1.47854 86.5677 1.72152 86.2903 2.10623C86.0327 2.5112 85.894 3.17939 85.894 4.13105V4.85999L86.1516 11.5419V11.9671C86.1516 12.9593 86.3299 13.6882 86.6667 14.1539C87.0036 14.6196 87.5584 14.9031 88.3311 15.0043C88.5293 15.0246 88.6284 15.1258 88.6284 15.3283C88.6284 15.5308 88.3906 15.632 87.915 15.632C87.7763 15.632 87.5584 15.632 87.2414 15.5713C86.3893 15.47 85.7751 15.4296 85.4184 15.4296C84.6853 15.4296 84.0711 15.47 83.5757 15.5308C83.12 15.6118 82.8029 15.632 82.6246 15.632C82.4463 15.632 82.367 15.551 82.367 15.3486C82.367 15.2068 82.4661 15.1056 82.6642 15.0448C83.0605 14.9233 83.3577 14.7411 83.5162 14.4981C83.6748 14.2552 83.754 13.8704 83.754 13.3845C83.754 13.1415 83.754 12.9795 83.754 12.8783L83.437 5.77116C83.437 5.56868 83.3776 5.48768 83.2983 5.48768C83.1992 5.48768 83.0407 5.69017 82.8624 6.07488L78.9193 14.6399L78.7806 14.9638C78.5825 15.4093 78.4041 15.632 78.2852 15.632C78.1267 15.632 77.8691 15.2473 77.5125 14.4576L76.9775 13.344L73.609 5.69017L73.5298 5.52818C73.5298 5.52818 73.4505 5.44719 73.4109 5.44719C73.292 5.44719 73.2524 5.58893 73.2524 5.89265V6.23687L73.1137 11.6431V12.0684L73.1929 13.0808C73.3911 14.1337 73.9459 14.7816 74.8375 15.0043C75.1546 15.0853 75.3131 15.2068 75.3131 15.3688C75.3131 15.551 75.1942 15.6523 74.9366 15.6523C74.7583 15.6523 74.5205 15.6523 74.2629 15.5915L73.51 15.4903C73.3118 15.47 73.0542 15.4498 72.6976 15.4498C72.0635 15.4498 71.5682 15.47 71.2115 15.551C70.9737 15.5915 70.7954 15.632 70.6963 15.632C70.4784 15.632 70.3595 15.5308 70.3595 15.3486C70.3595 15.2271 70.4387 15.1258 70.6171 15.0651C71.1521 14.8829 71.5484 14.5386 71.8059 14.0729C72.0437 13.6072 72.1824 12.939 72.1824 12.1088L72.4598 5.08272L72.4994 4.37403C72.4994 3.52361 72.3013 2.83517 71.8852 2.34921C71.4691 1.86326 70.9143 1.62028 70.201 1.62028C69.9434 1.62028 69.8047 1.51904 69.8047 1.31655C69.8047 1.11407 69.9632 0.992583 70.2604 0.992583C70.3199 0.992583 70.3991 0.992583 70.4982 0.992583L71.1124 1.03308C71.2313 1.03308 71.37 1.03308 71.5484 1.03308C71.8654 1.03308 72.2022 1.01283 72.5193 0.972335C72.9948 0.91159 73.3118 0.891342 73.4505 0.891342C73.9063 0.891342 74.2431 1.11407 74.4413 1.55953" fill="black"/>
						<path d="M94.3364 10.4665C94.4157 10.1425 94.4553 9.85905 94.4553 9.63632C94.4553 8.92763 94.277 8.34044 93.9401 7.87473C93.6033 7.42927 93.1674 7.20654 92.6324 7.20654C91.9587 7.20654 91.6218 7.49001 91.6218 8.05696C91.6218 8.1582 91.6218 8.25944 91.6417 8.36068V8.56317C91.6615 9.04912 91.1265 9.2921 90.0367 9.2921C89.7593 9.2921 89.6206 9.17061 89.6404 8.92763C89.6404 8.88714 89.6404 8.80614 89.6998 8.7049C89.6998 8.62391 89.7395 8.52267 89.7593 8.42143C89.8385 7.97597 90.0565 7.6115 90.3933 7.36852C91.1265 6.82182 92.0379 6.55859 93.0881 6.55859C94.2968 6.55859 95.2082 6.84207 95.8027 7.40902C96.2584 7.83423 96.4962 8.60366 96.4962 9.67682C96.4962 10.2235 96.4764 10.8917 96.4367 11.7219C96.3971 12.6533 96.3773 13.281 96.3773 13.605C96.3773 14.3339 96.6745 14.7186 97.2491 14.7186C97.4473 14.7186 97.6058 14.6984 97.7049 14.6376C97.8237 14.5971 97.903 14.5566 97.9426 14.5566C98.0417 14.5566 98.1011 14.6174 98.1011 14.7186C98.1011 14.9009 97.9624 15.0628 97.685 15.2248L97.2689 15.4476L96.9123 15.6703C96.6547 15.812 96.3773 15.8728 96.0801 15.8728C95.4658 15.8728 94.9507 15.4678 94.5346 14.6579C93.2268 15.5083 92.1568 15.9335 91.285 15.9335C90.6906 15.9335 90.2348 15.7513 89.898 15.4071C89.5611 15.0628 89.3828 14.5769 89.3828 13.9492C89.3828 12.8153 89.8584 11.9851 90.8293 11.4789C91.4237 11.1752 92.5927 10.8512 94.3364 10.5272M94.1185 11.1549C93.524 11.1144 92.9494 11.3372 92.3946 11.8029C91.8398 12.2888 91.5822 12.8153 91.5822 13.3822C91.5822 14.3339 91.9587 14.7996 92.6918 14.7996C93.1475 14.7996 93.5438 14.6781 93.9005 14.4756C94.0986 14.3542 94.2175 14.1719 94.2968 13.8884C94.376 13.605 94.3959 13.1393 94.3959 12.4913V11.6611V11.4384L94.3364 11.1954C94.3364 11.1954 94.2373 11.1549 94.1185 11.1347" fill="black"/>
						<path d="M101.986 10.224V13.241C101.986 14.3749 102.501 15.0026 103.531 15.1443C103.749 15.1645 103.848 15.2658 103.848 15.4075C103.848 15.5898 103.769 15.6708 103.611 15.6708C103.531 15.6708 103.432 15.6708 103.313 15.6505C102.62 15.529 101.887 15.4885 101.154 15.4885C100.757 15.4885 100.401 15.4885 100.104 15.529L99.4497 15.5898C99.3308 15.5898 99.2119 15.5898 99.0732 15.5898C98.8751 15.5898 98.776 15.4885 98.776 15.3063C98.776 15.1848 98.8552 15.0836 99.0336 15.0431C99.5884 14.9013 99.8658 14.3749 99.8658 13.4435V12.998V9.17108C99.8658 8.66488 99.8063 8.32066 99.6676 8.15867C99.5289 7.99669 99.2515 7.89544 98.8354 7.85495C98.6769 7.85495 98.5977 7.75371 98.5977 7.63222C98.5977 7.47023 98.6967 7.36899 98.8751 7.34874C99.846 7.20701 100.658 6.92353 101.352 6.51857L101.768 6.27559C101.768 6.27559 101.867 6.21484 101.926 6.21484C102.026 6.21484 102.085 6.29584 102.085 6.45782C102.085 6.49832 102.085 6.61981 102.085 6.76155V7.36899L102.006 8.03718V8.15867C102.006 8.15867 102.085 8.32066 102.184 8.32066C102.244 8.32066 102.402 8.15867 102.64 7.7942C102.818 7.53098 103.115 7.22725 103.512 6.92353C103.908 6.59956 104.166 6.45782 104.324 6.45782C104.562 6.45782 104.918 6.64006 105.394 7.02477C105.87 7.38924 106.107 7.67271 106.107 7.85495C106.107 7.91569 105.988 8.17892 105.77 8.60413C105.473 9.15083 105.216 9.43431 104.998 9.43431C104.899 9.43431 104.819 9.39381 104.74 9.33307L104.443 9.06984C104.086 8.72562 103.69 8.56364 103.214 8.56364C102.402 8.56364 101.986 9.13059 101.986 10.224Z" fill="black"/>
						<path d="M113.515 7.40924C114.01 7.3485 114.387 7.22701 114.645 7.02452C114.902 6.82204 115.041 6.51832 115.1 6.11336C115.1 5.97162 115.179 5.89062 115.318 5.89062C115.437 5.89062 115.497 5.99187 115.497 6.1741C115.497 6.35633 115.457 6.74105 115.358 7.308C115.298 7.71296 115.279 7.97619 115.259 8.09768C115.259 8.25966 115.199 8.38115 115.1 8.46215C115.021 8.54314 114.803 8.66463 114.446 8.82661C114.446 8.9886 114.446 9.08984 114.486 9.17083C114.526 9.51505 114.545 9.71754 114.545 9.79853C114.545 10.568 114.189 11.2362 113.456 11.7626C112.723 12.2891 111.831 12.5523 110.781 12.5523C110.444 12.5523 110.107 12.5118 109.711 12.451C109.572 12.4308 109.453 12.4105 109.334 12.4105C109.116 12.4105 108.938 12.4915 108.779 12.6738C108.621 12.856 108.561 13.0585 108.561 13.3217C108.561 13.9494 109.096 14.2531 110.147 14.2531C112.188 14.2531 113.555 14.3746 114.209 14.6378C114.882 14.9011 115.219 15.4275 115.219 16.2375C115.219 17.1284 114.843 17.8776 114.09 18.5053C113.337 19.1127 112.207 19.4367 110.721 19.4367C109.433 19.4367 108.443 19.2747 107.749 18.9507C107.056 18.6267 106.719 18.1813 106.719 17.5738C106.719 17.2701 106.838 16.9866 107.036 16.7032C107.254 16.4197 107.511 16.2577 107.809 16.197C108.145 16.116 108.304 16.0552 108.324 16.0147L108.244 15.873L107.927 15.549C107.61 15.2048 107.452 14.8201 107.452 14.3949C107.452 13.7672 107.69 13.2407 108.165 12.775L108.502 12.451C108.502 12.451 108.601 12.3093 108.601 12.2486C108.601 12.1473 108.462 12.0056 108.165 11.8233C107.848 11.6411 107.591 11.3171 107.353 10.8717C107.115 10.406 106.996 9.98076 106.996 9.5758C106.996 8.70513 107.353 7.97619 108.066 7.38899C108.779 6.82204 109.671 6.53857 110.761 6.53857C111.851 6.53857 112.742 6.82204 113.535 7.40924M109.295 16.197C109.037 16.197 108.799 16.2982 108.621 16.5007C108.443 16.7032 108.363 16.9461 108.363 17.2296C108.363 17.7561 108.601 18.1813 109.096 18.485C109.572 18.7887 110.246 18.9507 111.098 18.9507C111.831 18.9507 112.425 18.809 112.881 18.5458C113.337 18.2825 113.575 17.9181 113.575 17.4726C113.575 17.1081 113.436 16.8449 113.158 16.7234C112.881 16.6019 112.227 16.5007 111.217 16.4197C110.622 16.3792 110.147 16.3184 109.83 16.278L109.552 16.2172C109.552 16.2172 109.374 16.197 109.295 16.197ZM110.761 6.98403C110.226 6.98403 109.81 7.20676 109.493 7.63197C109.176 8.05718 109.037 8.64438 109.037 9.37332C109.037 10.163 109.196 10.8312 109.532 11.3374C109.869 11.8638 110.285 12.1068 110.781 12.1068C111.276 12.1068 111.712 11.9043 112.029 11.4791C112.346 11.0539 112.485 10.5072 112.485 9.81878C112.485 7.91544 111.91 6.98403 110.761 6.98403Z" fill="black"/>
						<path d="M119.737 7.00452V13.079C119.737 13.8079 119.836 14.3141 120.054 14.5976C120.272 14.8811 120.668 15.0431 121.243 15.0836C121.481 15.0836 121.58 15.1848 121.58 15.3265C121.58 15.5088 121.302 15.61 120.748 15.61C120.668 15.61 120.53 15.61 120.292 15.5695L119.499 15.4885C119.063 15.448 118.786 15.4278 118.647 15.4278C118.271 15.4278 117.775 15.4885 117.141 15.5898C116.983 15.61 116.864 15.6303 116.785 15.6303C116.646 15.6303 116.567 15.5493 116.567 15.4278C116.567 15.3265 116.606 15.2658 116.705 15.205L117.062 15.0228C117.221 14.9418 117.34 14.7596 117.458 14.4559C117.577 14.1521 117.617 13.8484 117.617 13.5447V13.0992V9.4748C117.617 8.9281 117.557 8.54339 117.439 8.32066C117.32 8.09793 117.122 7.99669 116.824 7.99669H116.587C116.448 7.99669 116.369 7.97644 116.309 7.91569C116.289 7.8752 116.27 7.8347 116.27 7.75371C116.27 7.57147 116.487 7.42974 116.904 7.32849C117.974 7.10576 118.806 6.76155 119.42 6.29584C119.499 6.23509 119.559 6.21484 119.598 6.21484C119.697 6.21484 119.737 6.29584 119.737 6.41733V6.51857C119.737 6.51857 119.717 6.7413 119.717 7.00452" fill="black"/>
						<path d="M126.375 6.52025C127.465 6.52025 128.396 6.96571 129.169 7.83638C129.823 8.58556 130.16 9.3145 130.16 10.0434C130.16 10.3269 129.982 10.4686 129.585 10.4686H129.11L128.872 10.4484H128.238L126.256 10.4889H125.226H124.869C124.671 10.4889 124.533 10.5091 124.473 10.5699C124.394 10.6509 124.354 10.7724 124.354 10.9749C124.354 11.9265 124.651 12.7567 125.266 13.4856C125.88 14.2146 126.573 14.579 127.366 14.579C128.258 14.579 128.971 14.3158 129.506 13.7894L129.843 13.4451C129.843 13.4451 129.962 13.3641 130.021 13.3641C130.18 13.3641 130.239 13.4451 130.239 13.5869C130.239 13.7894 129.962 14.1336 129.427 14.6195C128.476 15.47 127.445 15.8952 126.355 15.8952C125.147 15.8952 124.156 15.47 123.403 14.6195C122.63 13.7691 122.254 12.6757 122.254 11.3191C122.254 9.96244 122.67 8.88929 123.482 7.93762C124.295 6.98596 125.266 6.5 126.395 6.5M126.098 7.0467C125.622 7.0467 125.206 7.28968 124.85 7.75539C124.493 8.24135 124.315 8.78805 124.315 9.43599C124.315 9.63847 124.374 9.75996 124.473 9.80046C124.572 9.84095 124.85 9.8612 125.305 9.8612C125.543 9.8612 125.781 9.8612 126.038 9.84095C126.673 9.82071 127.029 9.80046 127.128 9.80046C127.742 9.80046 128.06 9.61822 128.06 9.23351C128.06 8.64631 127.861 8.1401 127.465 7.69464C127.069 7.24918 126.613 7.02645 126.118 7.02645" fill="black"/>
						<path d="M134.659 3.19922V13.0196C134.659 13.7283 134.758 14.2142 134.956 14.4977C135.155 14.7812 135.531 14.9634 136.106 15.0647C136.284 15.0849 136.403 15.1254 136.423 15.1457C136.443 15.1659 136.462 15.2469 136.462 15.3481C136.462 15.5304 136.383 15.6114 136.244 15.6114C136.165 15.6114 136.046 15.6114 135.888 15.5709C135.333 15.4899 134.639 15.4494 133.807 15.4494C132.896 15.4494 132.262 15.4899 131.885 15.5709C131.766 15.5911 131.687 15.6114 131.647 15.6114C131.509 15.6114 131.429 15.5101 131.429 15.3481C131.429 15.2469 131.509 15.1659 131.687 15.1052C132.222 14.8824 132.48 14.4167 132.48 13.6878V13.0601L132.519 12.7766V4.13063C132.519 3.19922 132.44 2.57152 132.301 2.24755C132.143 1.92358 131.865 1.74135 131.469 1.74135C131.271 1.74135 131.172 1.6401 131.172 1.45787C131.172 1.35663 131.211 1.27564 131.291 1.23514C131.37 1.19464 131.588 1.1339 131.925 1.07315C132.816 0.870673 133.53 0.627694 134.085 0.283475L134.441 0.0607446C134.441 0.0607446 134.56 0 134.62 0C134.719 0 134.778 0.0607446 134.778 0.22273C134.778 0.303723 134.778 0.485957 134.758 0.749184C134.699 1.7211 134.659 2.53103 134.659 3.19922Z" fill="black"/>
						<path d="M142.148 10.4665C142.228 10.1425 142.267 9.85905 142.267 9.63632C142.267 8.92763 142.089 8.34044 141.752 7.87473C141.415 7.42927 140.979 7.20654 140.464 7.20654C139.79 7.20654 139.454 7.49001 139.454 8.05696C139.454 8.1582 139.454 8.25944 139.454 8.36068L139.493 8.56317C139.493 9.04912 138.938 9.2921 137.868 9.2921C137.591 9.2921 137.452 9.17061 137.472 8.92763C137.472 8.88714 137.472 8.80614 137.532 8.7049C137.532 8.62391 137.571 8.52267 137.591 8.42143C137.69 7.97597 137.888 7.6115 138.225 7.36852C138.978 6.82182 139.87 6.55859 140.92 6.55859C142.129 6.55859 143.04 6.84207 143.634 7.40902C144.09 7.83423 144.328 8.60366 144.328 9.67682C144.328 10.2235 144.328 10.8917 144.268 11.7219C144.229 12.6533 144.209 13.281 144.209 13.605C144.209 14.3339 144.506 14.7186 145.081 14.7186C145.279 14.7186 145.438 14.6984 145.537 14.6376C145.655 14.5971 145.735 14.5566 145.774 14.5566C145.873 14.5566 145.933 14.6174 145.933 14.7186C145.933 14.9009 145.794 15.0628 145.517 15.2248L145.101 15.4476L144.744 15.6703C144.486 15.812 144.209 15.8728 143.912 15.8728C143.298 15.8728 142.782 15.4678 142.346 14.6579C141.039 15.5083 139.969 15.9335 139.117 15.9335C138.522 15.9335 138.067 15.7513 137.73 15.4071C137.393 15.0628 137.234 14.5769 137.234 13.9492C137.234 12.8153 137.71 11.9851 138.681 11.4789C139.275 11.1752 140.444 10.8512 142.188 10.5272M141.97 11.1549C141.376 11.1144 140.801 11.3372 140.246 11.8029C139.711 12.2888 139.434 12.8153 139.434 13.3822C139.434 14.3339 139.81 14.7996 140.543 14.7996C140.999 14.7996 141.415 14.6781 141.752 14.4756C141.95 14.3542 142.069 14.1719 142.148 13.8884C142.228 13.605 142.247 13.1393 142.247 12.4913V11.6611V11.4384L142.188 11.1954C142.188 11.1954 142.069 11.1549 141.97 11.1347" fill="black"/>
						<path d="M29.8203 2.87616C29.8203 2.12698 30.4147 1.51953 31.1479 1.51953C31.881 1.51953 32.4754 2.12698 32.4754 2.87616C32.4754 3.62534 31.881 4.23279 31.1479 4.23279C30.4147 4.23279 29.8203 3.62534 29.8203 2.87616Z" fill="black"/>
						<path d="M117.242 2.73163C117.242 1.98245 117.837 1.375 118.57 1.375C119.303 1.375 119.897 1.98245 119.897 2.73163C119.897 3.48081 119.303 4.08826 118.57 4.08826C117.837 4.08826 117.242 3.48081 117.242 2.73163Z" fill="black"/>
						<path d="M167.195 5.16181L166.502 4.45312L162.4 8.6445L158.319 4.45312L157.625 5.16181L161.707 9.35319L157.625 13.5446L158.319 14.2533L162.4 10.0619L166.502 14.2533L167.195 13.5446L163.114 9.35319L167.195 5.16181Z" fill="black"/>
					</svg>